<svg xmlns="http://www.w3.org/2000/svg" viewBox="0 0 80 90" width="80" height="90" aria-label="Gufo">
  <!-- Ali -->
  <ellipse cx="10" cy="52" rx="18" ry="7" fill="#7B5E3A" transform="rotate(-20 10 52)"/>
  <ellipse cx="70" cy="52" rx="18" ry="7" fill="#7B5E3A" transform="rotate(20 70 52)"/>
  <ellipse cx="9" cy="54" rx="12" ry="5" fill="#9B7D4A" transform="rotate(-15 9 54)" opacity="0.8"/>
  <ellipse cx="71" cy="54" rx="12" ry="5" fill="#9B7D4A" transform="rotate(15 71 54)" opacity="0.8"/>
  <!-- Corpo -->
  <ellipse cx="40" cy="60" rx="20" ry="24" fill="#7B5E3A"/>
  <!-- Striature corpo -->
  <path d="M30,52 Q40,48 50,52" fill="none" stroke="#9B7D4A" stroke-width="2" opacity="0.5"/>
  <path d="M28,60 Q40,56 52,60" fill="none" stroke="#9B7D4A" stroke-width="2" opacity="0.5"/>
  <path d="M30,68 Q40,64 50,68" fill="none" stroke="#9B7D4A" stroke-width="2" opacity="0.5"/>
  <!-- Pancia chiara -->
  <ellipse cx="40" cy="63" rx="11" ry="14" fill="#D4B483" opacity="0.75"/>
  <!-- Testa -->
  <circle cx="40" cy="30" r="22" fill="#7B5E3A"/>
  <!-- Orecchie a ciuffo -->
  <polygon points="24,16 20,4 30,14" fill="#7B5E3A"/>
  <polygon points="56,16 60,4 50,14" fill="#7B5E3A"/>
  <!-- Dischi facciali -->
  <ellipse cx="30" cy="32" rx="11" ry="11" fill="#D4B483" opacity="0.65"/>
  <ellipse cx="50" cy="32" rx="11" ry="11" fill="#D4B483" opacity="0.65"/>
  <!-- Occhi grandi -->
  <circle cx="30" cy="32" r="8" fill="#F1C40F"/>
  <circle cx="30" cy="32" r="5.5" fill="#2C3E50"/>
  <circle cx="30" cy="32" r="3" fill="#050A0E"/>
  <circle cx="31.8" cy="30" r="1.5" fill="white"/>
  <circle cx="50" cy="32" r="8" fill="#F1C40F"/>
  <circle cx="50" cy="32" r="5.5" fill="#2C3E50"/>
  <circle cx="50" cy="32" r="3" fill="#050A0E"/>
  <circle cx="51.8" cy="30" r="1.5" fill="white"/>
  <!-- Becco -->
  <polygon points="40,36 36,44 44,44" fill="#E67E22"/>
  <!-- Zampe -->
  <line x1="34" y1="83" x2="30" y2="90" stroke="#7B5E3A" stroke-width="2.5" stroke-linecap="round"/>
  <line x1="46" y1="83" x2="50" y2="90" stroke="#7B5E3A" stroke-width="2.5" stroke-linecap="round"/>
  <line x1="28" y1="90" x2="24" y2="94" stroke="#7B5E3A" stroke-width="2" stroke-linecap="round"/>
  <line x1="30" y1="90" x2="30" y2="95" stroke="#7B5E3A" stroke-width="2" stroke-linecap="round"/>
  <line x1="32" y1="90" x2="36" y2="94" stroke="#7B5E3A" stroke-width="2" stroke-linecap="round"/>
</svg>
