<svg xmlns="http://www.w3.org/2000/svg" viewBox="0 0 130 158" width="68" height="83" aria-label="Volpe">
    <ellipse cx="64" cy="154" rx="28" ry="5" fill="rgba(0,0,0,0.12)"/>
    <!-- Coda -->
    <path d="M18,102 C0,84 -6,58 2,34 C7,20 19,20 17,37 C15,54 17,78 18,100Z" fill="#E8722A" stroke="#1a0a2e" stroke-width="3.2" stroke-linejoin="round"/>
    <ellipse cx="3" cy="37" rx="7" ry="10" fill="white" stroke="#1a0a2e" stroke-width="2.4" transform="rotate(-12 3 37)"/>
    <!-- Corpo -->
    <circle cx="64" cy="108" r="36" fill="#E8722A" stroke="#1a0a2e" stroke-width="3.5"/>
    <ellipse cx="64" cy="113" rx="22" ry="23" fill="#FFF0E0" stroke="#1a0a2e" stroke-width="2"/>
    <!-- Zampa sinistra -->
    <g class="fox-paw-l">
      <ellipse cx="46" cy="138" rx="14" ry="8" fill="#C85A10" stroke="#1a0a2e" stroke-width="3"/>
      <line x1="37" y1="142" x2="34" y2="148" stroke="#1a0a2e" stroke-width="2.4" stroke-linecap="round"/>
      <line x1="46" y1="144" x2="46" y2="150" stroke="#1a0a2e" stroke-width="2.4" stroke-linecap="round"/>
      <line x1="55" y1="142" x2="58" y2="148" stroke="#1a0a2e" stroke-width="2.4" stroke-linecap="round"/>
    </g>
    <!-- Zampa destra -->
    <g class="fox-paw-r">
      <ellipse cx="82" cy="138" rx="14" ry="8" fill="#C85A10" stroke="#1a0a2e" stroke-width="3"/>
      <line x1="73" y1="142" x2="70" y2="148" stroke="#1a0a2e" stroke-width="2.4" stroke-linecap="round"/>
      <line x1="82" y1="144" x2="82" y2="150" stroke="#1a0a2e" stroke-width="2.4" stroke-linecap="round"/>
      <line x1="91" y1="142" x2="94" y2="148" stroke="#1a0a2e" stroke-width="2.4" stroke-linecap="round"/>
    </g>
    <!-- Orecchie -->
    <polygon points="28,46 50,32 30,2" fill="#E8722A" stroke="#1a0a2e" stroke-width="3.2" stroke-linejoin="round"/>
    <polygon points="33,43 47,35 32,8" fill="#F4907A"/>
    <polygon points="100,46 78,32 98,2" fill="#E8722A" stroke="#1a0a2e" stroke-width="3.2" stroke-linejoin="round"/>
    <polygon points="95,43 81,35 96,8" fill="#F4907A"/>
    <!-- Testa -->
    <circle cx="64" cy="62" r="38" fill="#E8722A" stroke="#1a0a2e" stroke-width="3.5"/>
    <ellipse cx="64" cy="70" rx="27" ry="22" fill="#FFF0E0" stroke="#1a0a2e" stroke-width="2"/>
    <!-- Occhi aperti -->
    <g class="fox-eye-open">
      <circle cx="46" cy="62" r="13" fill="white" stroke="#1a0a2e" stroke-width="3"/>
      <circle cx="46" cy="63" r="8.5" fill="#3A9A3A"/><circle cx="46" cy="63" r="5" fill="#1a0a2e"/><circle cx="49" cy="59" r="2.8" fill="white"/>
      <circle cx="82" cy="62" r="13" fill="white" stroke="#1a0a2e" stroke-width="3"/>
      <circle cx="82" cy="63" r="8.5" fill="#3A9A3A"/><circle cx="82" cy="63" r="5" fill="#1a0a2e"/><circle cx="85" cy="59" r="2.8" fill="white"/>
    </g>
    <!-- Occhi chiusi -->
    <g class="fox-eye-closed" style="display:none">
      <path d="M33,63 Q46,52 59,63" fill="none" stroke="#1a0a2e" stroke-width="3.5" stroke-linecap="round"/>
      <path d="M69,63 Q82,52 95,63" fill="none" stroke="#1a0a2e" stroke-width="3.5" stroke-linecap="round"/>
    </g>
    <ellipse cx="27" cy="73" rx="10" ry="7" fill="#F06050" opacity="0.4"/>
    <ellipse cx="101" cy="73" rx="10" ry="7" fill="#F06050" opacity="0.4"/>
    <polygon points="64,76 58,82 70,82" fill="#1a0a2e"/>
    <line x1="64" y1="82" x2="64" y2="86" stroke="#1a0a2e" stroke-width="2.2"/>
    <path d="M56,86 Q64,94 72,86" fill="none" stroke="#1a0a2e" stroke-width="2.8" stroke-linecap="round"/>
    <line x1="52" y1="78" x2="22" y2="72" stroke="#1a0a2e" stroke-width="2" stroke-linecap="round"/>
    <line x1="52" y1="82" x2="20" y2="82" stroke="#1a0a2e" stroke-width="2" stroke-linecap="round"/>
    <line x1="76" y1="78" x2="106" y2="72" stroke="#1a0a2e" stroke-width="2" stroke-linecap="round"/>
    <line x1="76" y1="82" x2="108" y2="82" stroke="#1a0a2e" stroke-width="2" stroke-linecap="round"/>
    <path d="M26,100 Q14,110 18,120 Q28,122 30,112 Q32,106 28,100Z" fill="#C85A10" stroke="#1a0a2e" stroke-width="2.8" stroke-linejoin="round"/>
    <path d="M102,100 Q114,110 110,120 Q100,122 98,112 Q96,106 100,100Z" fill="#C85A10" stroke="#1a0a2e" stroke-width="2.8" stroke-linejoin="round"/>
    <!-- ZZZ -->
    <g class="fox-zzz" style="display:none">
      <text x="90" y="22" font-family="Arial,sans-serif" font-weight="800" fill="#94A3B8" font-size="13">z</text>
      <text x="102" y="8" font-family="Arial,sans-serif" font-weight="800" fill="#94A3B8" font-size="17">z</text>
    </g>
    <!-- Cuore -->
    <g class="fox-heart" style="display:none">
      <path d="M64,18 C64,18 54,10 47,16 C43,21 45,28 50,31 L64,42 L78,31 C83,28 85,21 81,16 C74,10 64,18 64,18Z" fill="#EC4899" opacity="0.9"/>
    </g>
  </svg>