<svg xmlns="http://www.w3.org/2000/svg" viewBox="0 0 160 100" width="160" height="100" aria-label="Cagnolino">
  <!-- Coda -->
  <path d="M142,30 C158,16 164,4 156,2 C148,0 142,14 140,28Z" fill="#C8956B"/>
  <!-- Corpo -->
  <ellipse cx="90" cy="62" rx="52" ry="30" fill="#DBA878"/>
  <!-- Pancia chiara -->
  <ellipse cx="88" cy="68" rx="32" ry="18" fill="#F0D0A8" opacity="0.8"/>
  <!-- Testa -->
  <ellipse cx="32" cy="50" rx="30" ry="27" fill="#DBA878"/>
  <!-- Orecchie floppy -->
  <path d="M12,32 Q0,20 4,48 Q8,60 18,58 Q22,42 18,30Z" fill="#C8956B"/>
  <path d="M48,28 Q62,18 60,44 Q56,58 46,56 Q42,40 44,26Z" fill="#C8956B"/>
  <!-- Museruolo chiaro -->
  <ellipse cx="30" cy="56" rx="17" ry="13" fill="#F0D0A8" opacity="0.9"/>
  <!-- Occhi -->
  <circle cx="20" cy="44" r="6.5" fill="#2C3E50"/>
  <circle cx="20" cy="44" r="4" fill="#050A0E"/>
  <circle cx="21.8" cy="42" r="1.7" fill="white"/>
  <circle cx="40" cy="44" r="6.5" fill="#2C3E50"/>
  <circle cx="40" cy="44" r="4" fill="#050A0E"/>
  <circle cx="41.8" cy="42" r="1.7" fill="white"/>
  <!-- Naso grande -->
  <ellipse cx="30" cy="54" rx="6" ry="4.5" fill="#2C3E50"/>
  <!-- Bocca -->
  <path d="M24,59 Q30,64 36,59" fill="none" stroke="#C8956B" stroke-width="1.8" stroke-linecap="round"/>
  <!-- Lingua -->
  <ellipse cx="30" cy="63" rx="5" ry="4" fill="#E87090"/>
  <!-- Zampe -->
  <ellipse cx="54" cy="91" rx="14" ry="8" fill="#DBA878"/>
  <ellipse cx="80" cy="93" rx="14" ry="8" fill="#DBA878"/>
  <ellipse cx="112" cy="93" rx="14" ry="8" fill="#DBA878"/>
  <ellipse cx="136" cy="91" rx="14" ry="8" fill="#DBA878"/>
</svg>
