<svg xmlns="http://www.w3.org/2000/svg" viewBox="0 -12 80 122" width="80" height="122" aria-label="Coniglietto">
  <!-- Coda soffice -->
  <circle cx="26" cy="83" r="10" fill="white" opacity="0.95"/>
  <circle cx="26" cy="83" r="7" fill="#F0ECEA" opacity="0.8"/>
  <!-- Corpo -->
  <ellipse cx="50" cy="82" rx="24" ry="22" fill="#F5F0EC"/>
  <!-- Testa -->
  <circle cx="50" cy="48" r="19" fill="#F5F0EC"/>
  <!-- Orecchie -->
  <ellipse cx="37" cy="17" rx="7" ry="22" fill="#F0ECEA"/>
  <ellipse cx="37" cy="17" rx="4.5" ry="19" fill="#F4B8CB"/>
  <ellipse cx="59" cy="15" rx="7" ry="22" fill="#F0ECEA"/>
  <ellipse cx="59" cy="15" rx="4.5" ry="19" fill="#F4B8CB"/>
  <!-- Occhi -->
  <circle cx="42" cy="47" r="5" fill="#2C3E50"/>
  <circle cx="43.8" cy="45" r="1.7" fill="white"/>
  <circle cx="58" cy="47" r="5" fill="#2C3E50"/>
  <circle cx="59.8" cy="45" r="1.7" fill="white"/>
  <!-- Naso -->
  <ellipse cx="50" cy="55" rx="3.5" ry="2.5" fill="#FF9AB3"/>
  <!-- Bocca -->
  <path d="M47,58 Q50,62 53,58" fill="none" stroke="#D4A0B0" stroke-width="1.5" stroke-linecap="round"/>
  <!-- Baffi -->
  <line x1="47" y1="55" x2="27" y2="51" stroke="#CCC" stroke-width="1.1" stroke-linecap="round"/>
  <line x1="47" y1="58" x2="25" y2="58" stroke="#CCC" stroke-width="1.1" stroke-linecap="round"/>
  <line x1="53" y1="55" x2="73" y2="51" stroke="#CCC" stroke-width="1.1" stroke-linecap="round"/>
  <line x1="53" y1="58" x2="75" y2="58" stroke="#CCC" stroke-width="1.1" stroke-linecap="round"/>
  <!-- Zampe -->
  <ellipse cx="38" cy="102" rx="10" ry="6" fill="#F0ECEA"/>
  <ellipse cx="62" cy="102" rx="10" ry="6" fill="#F0ECEA"/>
</svg>
